<?xml version="1.0" encoding="iso-8859-1"?>
<!-- Generator: Adobe Illustrator 19.0.0, SVG Export Plug-In . SVG Version: 6.00 Build 0)  -->
<svg version="1.1" id="Layer_1" xmlns="http://www.w3.org/2000/svg" xmlns:xlink="http://www.w3.org/1999/xlink" width="30" height="30"
	 viewBox="0 0 512.001 512.001" xml:space="preserve">
<path fill="#fff" d="M452.228,414.233c15.367-29.579-4.458-51.074-4.458-51.074c23.611-35.01-7.328-62.642-7.328-62.642
	c9.77-56.13-30.125-79.287-30.125-79.287c-1.628-38.528-33.382-53.929-33.382-53.929s20.354-38.629,0-71.197
	c-20.354-32.567-56.18-31.496-56.18-31.496S306.101-1.599,258.879,0.03s-65.949,68.795-65.949,68.795
	c-53.736,21.573-31.754,81.016-46.409,98.476c-14.655,17.461-9.771,41.976-9.771,41.976c-29.311,19.541-18.727,56.586-18.727,56.586
	c-50.479,22.391-36.639,77.632-36.639,77.632c-36.639,20.232-25.24,68.515-25.24,68.515s15.566,40.274,74.839,46.859
	c0,0,17.563,24.148,47.565,16.831c0,0,24.873,40.979,89.638,35.856c0,0,53.788,1.463,83.059-37.321c0,0,35.125,4.54,51.955-27
	C403.2,447.237,435.249,446.913,452.228,414.233z"/>
<g>
	<path fill="#b86614" d="M196.596,212.933c-0.576,0-1.162-0.061-1.749-0.188c-4.443-0.963-7.266-5.344-6.304-9.787
		c4.614-21.313,19.37-29.714,31.179-32.114c-0.577-24.783,16.827-36.618,27.153-39.53c4.369-1.232,8.923,1.313,10.158,5.69
		c1.228,4.354-1.288,8.879-5.625,10.139c-1.987,0.608-18.73,6.452-14.55,29.74c0.45,2.499-0.281,5.065-1.977,6.955
		c-1.696,1.889-4.181,2.894-6.701,2.712c-1.876-0.092-19.147-0.412-23.544,19.891C203.799,210.298,200.389,212.933,196.596,212.933z
		"/>
	<path fill="#b86614" d="M342.745,318.47c-0.1,0-0.199-0.002-0.298-0.005c-4.544-0.161-8.097-3.976-7.934-8.52
		c0.238-6.707-1.34-11.922-4.691-15.499c-5.255-5.609-13.647-6.103-13.729-6.105c-2.437-0.073-4.717-1.221-6.224-3.136
		c-1.508-1.916-2.09-4.401-1.589-6.786c4.599-21.871-12.59-30.608-14.566-31.532c-4.148-1.864-5.97-6.725-4.105-10.872
		c1.864-4.149,6.768-5.984,10.911-4.121c9.741,4.379,26,18.275,24.956,41.521c4.995,1.453,11.212,4.278,16.361,9.774
		c6.459,6.894,9.529,16.092,9.13,27.341C350.809,314.973,347.156,318.47,342.745,318.47z"/>
	<path fill="#b86614" d="M175.03,346.617c-3.769,0.001-7.168-2.603-8.026-6.435c-5.444-24.31,8.633-38.174,19.858-43.764
		c5.297-25.439,26.698-30.052,27.66-30.246l3.255,16.14l0.109-0.023c-1.375,0.318-13.484,3.61-15.447,20.902
		c-0.367,3.235-2.607,5.95-5.714,6.925l0,0c0.002,0-4.948,1.68-9.021,5.894c-5.049,5.223-6.566,11.953-4.635,20.575
		c0.994,4.437-1.798,8.838-6.234,9.832C176.23,346.552,175.626,346.617,175.03,346.617z"/>
	<circle fill="#b86614" cx="121.444" cy="394.517" r="13.294"/>
	<circle fill="#b86614" cx="329.992" cy="131.079" r="13.294"/>
	<path fill="#b86614" d="M216.156,107.596c-0.648,0-1.308-0.078-1.966-0.239c-4.416-1.082-7.118-5.54-6.036-9.955
		c10.525-42.935,49.206-50.596,50.848-50.901c4.46-0.835,8.768,2.119,9.598,6.589c0.828,4.458-2.104,8.744-6.553,9.592
		c-1.291,0.255-29.971,6.291-37.901,38.641C223.225,105.079,219.86,107.596,216.156,107.596z"/>
	<path fill="#b86614" d="M262.074,458.11c-5.481,0-10.743-0.852-15.768-2.558c-14.942-5.074-23.352-16.399-26.826-22.198
		c-34.462-11.559-40.199-47.259-40.433-48.821c-0.674-4.496,2.426-8.688,6.922-9.361c4.482-0.668,8.669,2.411,9.357,6.892
		c0.195,1.229,4.929,29.079,31.944,36.456c2.383,0.65,4.347,2.337,5.353,4.593c0.036,0.078,5.894,12.503,19.164,16.912
		c10.573,3.512,23.358,1.259,38.008-6.694c3.997-2.172,8.994-0.688,11.163,3.308c2.169,3.996,0.688,8.994-3.308,11.162
		C285.001,454.666,273.095,458.109,262.074,458.11z"/>
	<path fill="#b86614" d="M339.54,419.541c-3.205,0-6.252-1.883-7.581-5.021c-1.765-4.16,0.155-8.959,4.288-10.76
		c1.081-0.493,22.533-10.803,20.68-48.437c-0.223-4.541,3.277-8.404,7.818-8.627c4.561-0.228,8.405,3.277,8.628,7.818
		c2.449,49.764-29.269,63.799-30.62,64.372C341.703,419.33,340.612,419.541,339.54,419.541z"/>
</g>
<g style="opacity:0.16;">
	<path style="fill:#663A00;" d="M447.236,363.159c23.611-35.01-7.328-62.642-7.328-62.642c9.77-56.13-30.125-79.287-30.125-79.287
		c-0.318-7.54-1.801-14.181-3.963-20.007c3.504,11.103,4.976,24.851,2.078,41.498c0,0,30.939,27.633,7.328,62.642
		c0,0,19.825,21.495,4.458,51.074c-16.979,32.681-49.028,33.004-49.028,33.004c-16.831,31.54-51.955,27-51.955,27
		c-29.271,38.784-83.059,37.321-83.059,37.321c-64.765,5.123-89.638-35.857-89.638-35.857
		c-30.003,7.317-47.566-16.831-47.566-16.831c-18.812-2.09-33.217-7.575-44.123-14.088c-1.341,13.849,1.294,25.024,1.294,25.024
		s15.566,40.274,74.839,46.859c0,0,17.562,24.148,47.565,16.831c0,0,24.873,40.979,89.638,35.857c0,0,53.788,1.463,83.059-37.321
		c0,0,35.125,4.54,51.955-27c0,0,32.05-0.324,49.028-33.004C467.06,384.654,447.236,363.159,447.236,363.159z"/>
</g>
</svg>
